<svg width="14" height="7" viewBox="0 0 14 7" fill="none" xmlns="http://www.w3.org/2000/svg">
<path fill-rule="evenodd" clip-rule="evenodd" d="M0.196351 2.86128C0.458152 2.60093 0.882617 2.60093 1.14442 2.86128L3.82596 5.52794C4.08776 5.78829 4.08776 6.2104 3.82596 6.47075C3.56416 6.7311 3.13969 6.7311 2.87789 6.47075L0.196351 3.80409C-0.0654503 3.54374 -0.0654503 3.12163 0.196351 2.86128Z" fill="#005FFF"/>
<path fill-rule="evenodd" clip-rule="evenodd" d="M4.88898 3.52729C5.15078 3.26694 5.57524 3.26694 5.83705 3.52729L7.8482 5.52729C8.11 5.78764 8.11 6.20975 7.8482 6.4701C7.5864 6.73045 7.16193 6.73045 6.90013 6.4701L4.88898 4.4701C4.62718 4.20975 4.62718 3.78764 4.88898 3.52729Z" fill="#005FFF"/>
<path fill-rule="evenodd" clip-rule="evenodd" d="M9.18902 0.195262C9.45082 0.455612 9.45082 0.877722 9.18902 1.13807L3.82594 6.4714C3.56414 6.73175 3.13967 6.73175 2.87787 6.4714C2.61607 6.21105 2.61607 5.78894 2.87787 5.5286L8.24095 0.195262C8.50275 -0.0650875 8.92721 -0.0650875 9.18902 0.195262Z" fill="#005FFF"/>
<path fill-rule="evenodd" clip-rule="evenodd" d="M13.2114 0.195262C13.4732 0.455612 13.4732 0.877722 13.2114 1.13807L7.84828 6.4714C7.58648 6.73175 7.16201 6.73175 6.90021 6.4714C6.63841 6.21106 6.63841 5.78894 6.90021 5.5286L12.2633 0.195262C12.5251 -0.0650875 12.9496 -0.0650875 13.2114 0.195262Z" fill="#005FFF"/>
</svg>
